<svg xmlns="http://www.w3.org/2000/svg" x="0px" y="0px" width="48" height="48" viewBox="0 0 172 172" style=" fill:#000000;"><g fill="none" fill-rule="nonzero" stroke="none" stroke-width="1" stroke-linecap="butt" stroke-linejoin="miter" stroke-miterlimit="10" stroke-dasharray="" stroke-dashoffset="0" font-family="none" font-weight="none" font-size="none" text-anchor="none" style="mix-blend-mode: normal"><path d="M0,172v-172h172v172z" fill="none"></path><g fill="#ffffff"><path d="M126.98438,35.83333c-7.86653,0 -14.5293,3.07943 -16.79687,7.39063c-1.81966,0.44792 -18.89649,4.67513 -20.82812,5.375c-5.54297,2.01563 -2.60351,9.57422 2.91146,8.28646c4.56315,-1.0638 12.98958,-6.94271 12.98958,-6.94271c6.60677,12.28972 14.83724,47.50716 12.09375,52.63021c-8.87435,16.62891 -18.64453,21.05208 -36.72917,21.05208c-22.17187,0 -23.79557,-0.33594 -13.4375,-21.05208c2.40756,-4.8151 0,-9.40625 -5.375,-9.40625h-45.6875c-5.62695,3.52735 -16.125,21.89193 -16.125,30.45833c0,5.29101 4.8151,9.37826 12.54167,12.54167c-3.38737,3.80729 -5.375,8.84635 -5.375,14.33333c0,11.86979 9.63021,21.5 21.5,21.5c11.86979,0 21.5,-9.63021 21.5,-21.5c0,-2.46354 -0.58789,-4.73112 -1.34375,-6.94271c10.49805,1.00781 21.44401,1.56771 31.80208,1.56771h21.05208c3.05143,0 8.5944,-3.86328 15.22917,-9.18229c-1.45573,7.64258 0.72787,14.33333 2.6875,14.33333c5.03906,0 5.29101,-4.89909 12.31771,-10.75c-1.90365,3.19141 -2.91146,6.9707 -2.91146,10.97396c0,11.86979 9.63021,21.5 21.5,21.5c11.86979,0 21.5,-9.63021 21.5,-21.5c0,-10.38607 -7.44661,-19.03646 -17.24479,-21.05208c10.72201,-1.93164 17.02083,0.44792 17.02083,-2.6875c0,-4.89909 -12.65365,-13.52149 -27.54687,-12.54167c0.5319,-0.5319 0.89583,-0.97982 0.89583,-1.34375c0,-3.16341 -0.64388,-28.66667 -13.4375,-48.15104c-3.80729,0 -16.29297,-5.15104 -19.48437,-12.09375c3.16341,2.85547 8.67839,4.70313 14.78125,4.70313c9.07031,0 9.18229,0 9.18229,-10.75c0,-10.75 -0.19597,-10.75 -9.18229,-10.75zM21.5,71.66667c-3.94726,0 -7.16667,3.2194 -7.16667,7.16667c0,3.94726 3.2194,7.16667 7.16667,7.16667h43c3.94726,0 7.16667,-3.2194 7.16667,-7.16667c0,-3.94726 -3.2194,-7.16667 -7.16667,-7.16667zM150.5,139.75c5.9349,0 10.75,4.8151 10.75,10.75c0,5.9349 -4.8151,10.75 -10.75,10.75c-5.9349,0 -10.75,-4.8151 -10.75,-10.75c0,-1.31576 0.25195,-2.65951 0.67188,-3.80729l5.82292,7.16667c1.84766,2.35156 5.26302,2.74349 7.61458,0.89583c2.35156,-1.84765 2.74349,-5.26302 0.89583,-7.61458l-5.82292,-7.16667c0.50391,-0.08399 1.03581,-0.22396 1.56771,-0.22396zM25.97917,140.19792c0.86784,0.19597 1.79167,0.27995 2.6875,0.44792c-1.48372,2.29558 -2.99544,4.53516 -4.47917,6.71875c-1.73567,2.46354 -1.11979,5.87891 1.34375,7.61458c2.46354,1.73568 5.87891,1.11979 7.61458,-1.34375c1.65169,-2.40755 3.41537,-5.03906 5.15104,-7.83854c0.67188,1.39974 1.11979,3.02344 1.11979,4.70313c0,5.9349 -4.8151,10.75 -10.75,10.75c-5.9349,0 -10.75,-4.8151 -10.75,-10.75c0,-5.01107 3.41537,-9.1263 8.0625,-10.30208z"></path></g></g></svg>